<svg width="84" height="84" xmlns="http://www.w3.org/2000/svg" viewBox="0 0 130.16 130.16"><defs><style>.cls-1{fill:#3d4548;}.cls-2{fill:#fbbb21;}.cls-3{fill:#ec6726;}.cls-4{fill:#e84133;}.cls-5{fill:#f39325;}</style></defs><title>Ресурс 1</title><g id="Слой_2" data-name="Слой 2"><g id="Layer_1" data-name="Layer 1"><path class="cls-1" d="M128.86,63.78a10.49,10.49,0,0,0-7.23,2.89q0-.79,0-1.59a1.3,1.3,0,0,0-1.3-1.3,10.48,10.48,0,0,0-7.23,2.89q0-.79,0-1.59a1.32,1.32,0,0,0-1.32-1.3,10.63,10.63,0,0,0-7.21,2.85q0-.78,0-1.55a1.3,1.3,0,0,0-1.3-1.3A10.87,10.87,0,0,0,92.71,72a28.42,28.42,0,0,1-7.5,13.25A16,16,0,0,1,81,88.4a24,24,0,0,1,2.78-7.2c3.49-6.56.63-11.09-2.88-13a1.3,1.3,0,0,0-1.61.31A67.26,67.26,0,0,0,65.08,99.26,67.27,67.27,0,0,0,50.85,68.53a1.3,1.3,0,0,0-1.61-.31c-3.51,1.88-6.38,6.41-2.88,13a24,24,0,0,1,2.78,7.2A16,16,0,0,1,45,85.21,28.43,28.43,0,0,1,37.45,72a10.87,10.87,0,0,0-10.64-8.17,1.3,1.3,0,0,0-1.3,1.3q0,.78,0,1.56a10.66,10.66,0,0,0-7.23-2.86,1.3,1.3,0,0,0-1.3,1.3q0,.8,0,1.59A10.48,10.48,0,0,0,9.8,63.78a1.3,1.3,0,0,0-1.3,1.3q0,.8,0,1.59A10.49,10.49,0,0,0,1.3,63.78,1.3,1.3,0,0,0,0,65.08a64.65,64.65,0,0,0,19.06,46,63.8,63.8,0,0,0,46,19.06,63.8,63.8,0,0,0,46-19.06,64.65,64.65,0,0,0,19.06-46,1.3,1.3,0,0,0-1.3-1.3M2.61,66.49A7.82,7.82,0,0,1,9,72.83,56.1,56.1,0,0,0,25,105h0a1.3,1.3,0,0,0,1.84-1.84h0A53.47,53.47,0,0,1,11.63,72.67l0-.21a54.87,54.87,0,0,1-.48-6,8.07,8.07,0,0,1,6.52,6.44A47.72,47.72,0,0,0,31.07,99.05h0a1.3,1.3,0,0,0,1.84-1.84h0A45.14,45.14,0,0,1,20.25,72.73l0-.25a45.93,45.93,0,0,1-.58-6,8.18,8.18,0,0,1,6.63,6.31A39.29,39.29,0,0,0,37.05,93h0a1.3,1.3,0,1,0,1.84-1.84h0a36.81,36.81,0,0,1-10-18.64l-.05-.25a37.24,37.24,0,0,1-.67-5.8,8.22,8.22,0,0,1,6.79,6.1A31,31,0,0,0,43.11,87c2.59,2.59,4.88,4,7.22,4.5a1.3,1.3,0,0,0,1.56-1.27c0-3-.94-6-3.24-10.29-2-3.74-1.62-7,.93-8.9,9,11.15,14.19,26.3,14.19,41.78v14.69A61.18,61.18,0,0,1,20.9,109.26,62,62,0,0,1,2.61,66.49m106.64,42.77a61.19,61.19,0,0,1-42.88,18.29V112.86c0-15.48,5.16-30.63,14.19-41.78,2.55,1.91,2.92,5.16.93,8.9-2.3,4.32-3.24,7.3-3.24,10.29a1.3,1.3,0,0,0,1.56,1.27c2.34-.48,4.63-1.91,7.22-4.5a31,31,0,0,0,8.18-14.47,8.22,8.22,0,0,1,6.79-6.1,37.1,37.1,0,0,1-.67,5.8l-.05.25A36.8,36.8,0,0,1,91.22,91.22a1.3,1.3,0,0,0,1.84,1.84h0l0,0h0A39.29,39.29,0,0,0,103.9,72.8a8.18,8.18,0,0,1,6.63-6.31,46.12,46.12,0,0,1-.58,6l0,.25A45.16,45.16,0,0,1,97.24,97.22h0a1.3,1.3,0,0,0,1.84,1.84h0a47.71,47.71,0,0,0,13.44-26.13A8.07,8.07,0,0,1,119,66.49a54.42,54.42,0,0,1-.47,5.94l0,.24a53.45,53.45,0,0,1-15.16,30.45l-.12.12a1.3,1.3,0,0,0,1.84,1.84l.13-.13a56.11,56.11,0,0,0,15.92-32.15,7.82,7.82,0,0,1,6.41-6.32,62,62,0,0,1-18.28,42.77"/><path class="cls-2" d="M8.54,61.18a56.56,56.56,0,0,1,113.08,0h5.9a62.46,62.46,0,0,0-124.89,0Z"/><path class="cls-3" d="M65.08,17A45.52,45.52,0,0,0,19.64,61.18h5.9a39.56,39.56,0,0,1,79.07,0h5.91A45.52,45.52,0,0,0,65.08,17"/><path class="cls-4" d="M65.08,25.51A37,37,0,0,0,28.14,61.18H34a31.06,31.06,0,0,1,62.06,0H102A37,37,0,0,0,65.08,25.51"/><path class="cls-5" d="M65.08,8.5A54,54,0,0,0,11.14,61.18H17a48.06,48.06,0,0,1,96.08,0H119A54,54,0,0,0,65.08,8.5"/></g></g></svg>